<svg xmlns="http://www.w3.org/2000/svg" width="1200" height="630" viewBox="0 0 1200 630">
<defs><filter id="grain" x="0%" y="0%" width="100%" height="100%"><feTurbulence type="fractalNoise" baseFrequency="0.85" stitchTiles="stitch" numOctaves="2"/><feColorMatrix values="0 0 0 0 0.06  0 0 0 0 0.07  0 0 0 0 0.08  0 0 0 0.05 0"/></filter></defs>
<rect width="1200" height="630" fill="#FBF7F1"/>
<rect width="1200" height="630" filter="url(#grain)"/>
<line x1="60" y1="80" x2="1140" y2="80" stroke="#E5DDCD" stroke-width="1"/>
<circle cx="62" cy="48" r="3.5" fill="#6B46C1"/><text x="76" y="53" font-family="Geist, system-ui, sans-serif" font-size="11" letter-spacing="3" fill="#8B847B">CONEXPLE · ALPHA · SOLANA DEVNET</text>
<text x="1140" y="53" text-anchor="end" font-family="Geist, system-ui, sans-serif" font-size="11" letter-spacing="3" fill="#8B847B">21 POSITIONS · 3 NETWORKS · LIVE</text>
<text x="60" y="148" font-family="Fraunces, Georgia, serif" font-size="62" font-weight="500" fill="#0E1116" letter-spacing="-2">Conexple</text>
<text x="60" y="184" font-family="Geist, system-ui, sans-serif" font-size="18" fill="#3B3A36">Open-source consumer affiliate protocol on Solana</text>
<rect x="60" y="210" width="6" height="6" fill="#6B46C1"/><text x="74" y="216" font-family="Geist, system-ui, sans-serif" font-size="10" letter-spacing="2.5" fill="#8B847B">TREE 1 · ROOT A · 16 NODES</text>
<g stroke="#C7BFAF" stroke-width="1.5" fill="none" stroke-linecap="round">
<line x1="240.0" y1="254.0" x2="120.0" y2="302.0"/>
<line x1="240.0" y1="254.0" x2="180.0" y2="302.0"/>
<line x1="240.0" y1="254.0" x2="240.0" y2="302.0"/>
<line x1="240.0" y1="254.0" x2="300.0" y2="302.0"/>
<line x1="240.0" y1="254.0" x2="360.0" y2="302.0"/>
<line x1="120.0" y1="302.0" x2="120.0" y2="350.0"/>
<line x1="120.0" y1="350.0" x2="120.0" y2="398.0"/>
<line x1="120.0" y1="398.0" x2="120.0" y2="446.0"/>
<line x1="120.0" y1="446.0" x2="120.0" y2="494.0"/>
<line x1="180.0" y1="302.0" x2="180.0" y2="350.0"/>
<line x1="240.0" y1="302.0" x2="240.0" y2="350.0"/>
<line x1="240.0" y1="350.0" x2="240.0" y2="398.0"/>
<line x1="240.0" y1="398.0" x2="240.0" y2="446.0"/>
<line x1="240.0" y1="446.0" x2="240.0" y2="494.0"/>
<line x1="300.0" y1="302.0" x2="300.0" y2="350.0"/>
</g>
<circle cx="240.0" cy="254.0" r="13" fill="#6B46C1" stroke="#6B46C1" stroke-width="1.5"/>
<text x="240.0" y="258.0" text-anchor="middle" font-family="Fraunces, Georgia, serif" font-size="12" font-weight="600" fill="#FBF7F1">A</text>
<circle cx="120.0" cy="302.0" r="9" fill="#FBF7F1" stroke="#6B46C1" stroke-width="1.5"/>
<text x="120.0" y="305.5" text-anchor="middle" font-family="Fraunces, Georgia, serif" font-size="10" font-weight="500" fill="#0E1116">B</text>
<circle cx="120.0" cy="350.0" r="9" fill="#FBF7F1" stroke="#6B46C1" stroke-width="1.5"/>
<text x="120.0" y="353.5" text-anchor="middle" font-family="Fraunces, Georgia, serif" font-size="10" font-weight="500" fill="#0E1116">E</text>
<circle cx="120.0" cy="398.0" r="9" fill="#FBF7F1" stroke="#6B46C1" stroke-width="1.5"/>
<text x="120.0" y="401.5" text-anchor="middle" font-family="Fraunces, Georgia, serif" font-size="10" font-weight="500" fill="#0E1116">M</text>
<circle cx="120.0" cy="446.0" r="9" fill="#FBF7F1" stroke="#6B46C1" stroke-width="1.5"/>
<text x="120.0" y="449.5" text-anchor="middle" font-family="Fraunces, Georgia, serif" font-size="10" font-weight="500" fill="#0E1116">N</text>
<circle cx="120.0" cy="494.0" r="9" fill="#FBF7F1" stroke="#6B46C1" stroke-width="1.5"/>
<text x="120.0" y="497.5" text-anchor="middle" font-family="Fraunces, Georgia, serif" font-size="10" font-weight="500" fill="#0E1116">O</text>
<circle cx="180.0" cy="302.0" r="9" fill="#FBF7F1" stroke="#6B46C1" stroke-width="1.5"/>
<text x="180.0" y="305.5" text-anchor="middle" font-family="Fraunces, Georgia, serif" font-size="10" font-weight="500" fill="#0E1116">C</text>
<circle cx="180.0" cy="350.0" r="9" fill="#FBF7F1" stroke="#6B46C1" stroke-width="1.5"/>
<text x="180.0" y="353.5" text-anchor="middle" font-family="Fraunces, Georgia, serif" font-size="10" font-weight="500" fill="#0E1116">D</text>
<circle cx="240.0" cy="302.0" r="9" fill="#FBF7F1" stroke="#6B46C1" stroke-width="1.5"/>
<text x="240.0" y="305.5" text-anchor="middle" font-family="Fraunces, Georgia, serif" font-size="10" font-weight="500" fill="#0E1116">F</text>
<circle cx="240.0" cy="350.0" r="9" fill="#FBF7F1" stroke="#6B46C1" stroke-width="1.5"/>
<text x="240.0" y="353.5" text-anchor="middle" font-family="Fraunces, Georgia, serif" font-size="10" font-weight="500" fill="#0E1116">I</text>
<circle cx="240.0" cy="398.0" r="9" fill="#FBF7F1" stroke="#6B46C1" stroke-width="1.5"/>
<text x="240.0" y="401.5" text-anchor="middle" font-family="Fraunces, Georgia, serif" font-size="10" font-weight="500" fill="#0E1116">J</text>
<circle cx="240.0" cy="446.0" r="9" fill="#FBF7F1" stroke="#6B46C1" stroke-width="1.5"/>
<text x="240.0" y="449.5" text-anchor="middle" font-family="Fraunces, Georgia, serif" font-size="10" font-weight="500" fill="#0E1116">K</text>
<circle cx="240.0" cy="494.0" r="9" fill="#FBF7F1" stroke="#6B46C1" stroke-width="1.5"/>
<text x="240.0" y="497.5" text-anchor="middle" font-family="Fraunces, Georgia, serif" font-size="10" font-weight="500" fill="#0E1116">L</text>
<circle cx="300.0" cy="302.0" r="9" fill="#FBF7F1" stroke="#6B46C1" stroke-width="1.5"/>
<text x="300.0" y="305.5" text-anchor="middle" font-family="Fraunces, Georgia, serif" font-size="10" font-weight="500" fill="#0E1116">G</text>
<circle cx="300.0" cy="350.0" r="9" fill="#FBF7F1" stroke="#6B46C1" stroke-width="1.5"/>
<text x="300.0" y="353.5" text-anchor="middle" font-family="Fraunces, Georgia, serif" font-size="10" font-weight="500" fill="#0E1116">P</text>
<circle cx="360.0" cy="302.0" r="9" fill="#FBF7F1" stroke="#6B46C1" stroke-width="1.5"/>
<text x="360.0" y="305.5" text-anchor="middle" font-family="Fraunces, Georgia, serif" font-size="10" font-weight="500" fill="#0E1116">H</text>
<text x="414" y="514" text-anchor="end" font-family="Geist, system-ui, sans-serif" font-size="9" letter-spacing="2" fill="#8B847B">DEPTH 5</text>
<rect x="420" y="210" width="6" height="6" fill="#3FB6BB"/><text x="434" y="216" font-family="Geist, system-ui, sans-serif" font-size="10" letter-spacing="2.5" fill="#8B847B">TREE 2 · ROOT Q · 4 NODES</text>
<g stroke="#C7BFAF" stroke-width="1.5" fill="none" stroke-linecap="round">
<line x1="600.0" y1="254.0" x2="600.0" y2="334.0"/>
<line x1="600.0" y1="334.0" x2="600.0" y2="414.0"/>
<line x1="600.0" y1="414.0" x2="600.0" y2="494.0"/>
</g>
<circle cx="600.0" cy="254.0" r="13" fill="#3FB6BB" stroke="#3FB6BB" stroke-width="1.5"/>
<text x="600.0" y="258.0" text-anchor="middle" font-family="Fraunces, Georgia, serif" font-size="12" font-weight="600" fill="#FBF7F1">Q</text>
<circle cx="600.0" cy="334.0" r="9" fill="#FBF7F1" stroke="#3FB6BB" stroke-width="1.5"/>
<text x="600.0" y="337.5" text-anchor="middle" font-family="Fraunces, Georgia, serif" font-size="10" font-weight="500" fill="#0E1116">Y</text>
<circle cx="600.0" cy="414.0" r="9" fill="#FBF7F1" stroke="#3FB6BB" stroke-width="1.5"/>
<text x="600.0" y="417.5" text-anchor="middle" font-family="Fraunces, Georgia, serif" font-size="10" font-weight="500" fill="#0E1116">Z</text>
<circle cx="600.0" cy="494.0" r="9" fill="#FBF7F1" stroke="#3FB6BB" stroke-width="1.5"/>
<text x="600.0" y="497.5" text-anchor="middle" font-family="Fraunces, Georgia, serif" font-size="10" font-weight="500" fill="#0E1116">W</text>
<text x="774" y="514" text-anchor="end" font-family="Geist, system-ui, sans-serif" font-size="9" letter-spacing="2" fill="#8B847B">DEPTH 3</text>
<rect x="780" y="210" width="6" height="6" fill="#D9A441"/><text x="794" y="216" font-family="Geist, system-ui, sans-serif" font-size="10" letter-spacing="2.5" fill="#8B847B">TREE 3 · ROOT R · 1 NODE</text>
<g stroke="#C7BFAF" stroke-width="1.5" fill="none" stroke-linecap="round">
</g>
<circle cx="960.0" cy="254.0" r="13" fill="#D9A441" stroke="#D9A441" stroke-width="1.5"/>
<text x="960.0" y="258.0" text-anchor="middle" font-family="Fraunces, Georgia, serif" font-size="12" font-weight="600" fill="#FBF7F1">R</text>
<text x="1134" y="514" text-anchor="end" font-family="Geist, system-ui, sans-serif" font-size="9" letter-spacing="2" fill="#8B847B">STANDALONE</text>
<line x1="60" y1="555" x2="1140" y2="555" stroke="#E5DDCD" stroke-width="1"/>
<text x="60" y="580" font-family="Geist, system-ui, sans-serif" font-size="13" fill="#3B3A36"><tspan font-weight="600" fill="#0E1116">Live on Solana devnet</tspan> · 4 Anchor programs · pay loyal customers, not influencers</text>
<text x="60" y="606" font-family="Geist, system-ui, sans-serif" font-size="9" letter-spacing="2" fill="#8B847B">PROTOCOL</text>
<text x="60" y="620" font-family="Consolas, ui-monospace, monospace" font-size="11" fill="#0E1116">D1HVpp…KSbn</text>
<text x="300" y="606" font-family="Geist, system-ui, sans-serif" font-size="9" letter-spacing="2" fill="#8B847B">NETWORK</text>
<text x="300" y="620" font-family="Consolas, ui-monospace, monospace" font-size="11" fill="#0E1116">9nrHZq…ePt9</text>
<text x="540" y="606" font-family="Geist, system-ui, sans-serif" font-size="9" letter-spacing="2" fill="#8B847B">ESCROW</text>
<text x="540" y="620" font-family="Consolas, ui-monospace, monospace" font-size="11" fill="#0E1116">9eTvjK…mMXU</text>
<text x="780" y="606" font-family="Geist, system-ui, sans-serif" font-size="9" letter-spacing="2" fill="#8B847B">ORACLE</text>
<text x="780" y="620" font-family="Consolas, ui-monospace, monospace" font-size="11" fill="#0E1116">9CQFV9…i1qz</text>
<text x="1140" y="620" text-anchor="end" font-family="Consolas, ui-monospace, monospace" font-size="11" fill="#8B847B">conexple-pages-web.pages.dev</text>
</svg>